<?xml version="1.0" standalone="no"?>
<!DOCTYPE svg PUBLIC "-//W3C//DTD SVG 20010904//EN"
 "http://www.w3.org/TR/2001/REC-SVG-20010904/DTD/svg10.dtd">
<svg version="1.0" xmlns="http://www.w3.org/2000/svg"
 width="222.000000pt" height="222.000000pt" viewBox="0 0 222.000000 222.000000"
 preserveAspectRatio="xMidYMid meet">
<metadata>
Created by potrace 1.14, written by Peter Selinger 2001-2017
</metadata>
<g transform="translate(0.000000,222.000000) scale(0.100000,-0.100000)"
fill="#000000" stroke="none">
<path d="M760 1926 c-166 -70 -259 -157 -295 -278 -18 -61 -20 -134 -3 -144 6
-4 293 -7 637 -7 l626 0 65 28 c131 58 222 136 263 225 17 38 34 107 31 128
-1 6 -2 26 -3 42 l-1 30 -632 0 -633 -1 -55 -23z"/>
<path d="M433 1324 c-64 -27 -147 -67 -160 -78 -7 -6 -33 -27 -58 -46 -78 -61
-139 -217 -118 -301 5 -18 25 -19 635 -19 l629 0 70 30 c38 16 95 46 125 66
113 75 185 215 168 324 l-6 35 -628 0 c-461 0 -635 -3 -657 -11z"/>
<path d="M454 724 c-16 -65 29 -200 89 -263 58 -61 188 -138 263 -157 34 -9
1252 -12 1265 -3 13 8 17 77 7 122 -23 102 -92 189 -203 255 -129 76 -85 72
-786 72 l-629 0 -6 -26z"/>
</g>
</svg>
